<?xml version="1.0" encoding="utf-8"?>
<!-- Generator: Adobe Illustrator 17.0.0, SVG Export Plug-In . SVG Version: 6.00 Build 0)  -->
<!DOCTYPE svg PUBLIC "-//W3C//DTD SVG 1.1//EN" "http://www.w3.org/Graphics/SVG/1.1/DTD/svg11.dtd">
<svg version="1.1" id="Layer_1" xmlns="http://www.w3.org/2000/svg" xmlns:xlink="http://www.w3.org/1999/xlink" x="0px" y="0px"
	 width="56.69px" height="56.69px" viewBox="0 0 56.69 56.69" enable-background="new 0 0 56.69 56.69" xml:space="preserve">
<g>
	<path fill="none" stroke="#ffffff" stroke-width="3" stroke-miterlimit="10" d="M34.931,41.82c0,1.143-0.928,3.174-2.071,3.174
		h-8.095c-1.143,0-2.071-2.031-2.071-3.174c0,0-1.186-0.583-1.381-0.955c-0.531-1.012,0.927-2.071,2.071-2.071h10.857
		c1.143,0,2.601,1.058,2.071,2.071C36.117,41.237,34.931,41.82,34.931,41.82z"/>
	<path fill="none" stroke="#ffffff" stroke-width="3" stroke-miterlimit="10" d="M18.038,5.909"/>
	<path fill="none" stroke="#ffffff" stroke-width="3" stroke-miterlimit="10" d="M20.592,7.08C14.78,5.061,7.41,10.855,9.766,21.939
		c0.896,4.218,7.136,12.733,11.434,18.156c1.063-1.625,3.239-1.284,3.787-1.301"/>
	<path fill="none" stroke="#ffffff" stroke-width="3" stroke-miterlimit="10" d="M29.538,3.121c-0.004,0-0.348-0.017-0.348-0.017
		L28.722,3.09C28.228,3.11,11.52,3.963,20.07,28.661c0.888,2.563,2.994,6.636,4.917,10.133h7.65
		c1.923-3.497,4.029-7.57,4.917-10.133C46.103,3.963,30.032,3.142,29.538,3.121"/>
	<path fill="none" stroke="#ffffff" stroke-width="3" stroke-miterlimit="10" d="M32.637,38.794
		c0.509,0.095,2.333-0.449,4.208,1.301c4.315-5.43,10.107-13.887,11.014-18.156c2.123-9.988-5.456-15.728-10.456-14.752"/>
	<path fill="none" stroke="#ffffff" stroke-width="3" stroke-miterlimit="10" d="M40.079,6.489"/>
	<path fill="none" stroke="#ffffff" stroke-width="3" stroke-miterlimit="10" d="M33.133,44.994h-8.641
		c-0.763,0.308-1.303,1.053-1.303,1.926l0.694,4.169c0,1.149,0.931,2.081,2.081,2.081h5.698c1.15,0,2.081-0.932,2.081-2.081
		l0.694-4.169C34.435,46.047,33.896,45.303,33.133,44.994z"/>
</g>
</svg>
