<?xml version="1.0" encoding="utf-8"?>
<!-- Generator: Adobe Illustrator 17.0.0, SVG Export Plug-In . SVG Version: 6.00 Build 0)  -->
<!DOCTYPE svg PUBLIC "-//W3C//DTD SVG 1.1//EN" "http://www.w3.org/Graphics/SVG/1.1/DTD/svg11.dtd">
<svg version="1.1" id="Layer_1" xmlns="http://www.w3.org/2000/svg" xmlns:xlink="http://www.w3.org/1999/xlink" x="0px" y="0px"
	 width="56.69px" height="56.69px" viewBox="0 0 56.69 56.69" enable-background="new 0 0 56.69 56.69" xml:space="preserve">
<path fill="none" stroke="#535353" stroke-width="2" stroke-miterlimit="10" d="M38.163,27.995c0.102,0.044,0.209,0.081,0.392,0.146
	c0.086,0.033,0.17,0.065,0.262,0.094c0.683,0.215,1.402,0.324,2.134,0.324c0.245,0,0.485-0.013,0.738-0.038
	c0.076-0.009,0.151-0.02,0.226-0.033l0.152-0.022c0.103-0.014,0.208-0.028,0.329-0.053c0.074-0.016,0.146-0.035,0.218-0.055
	l0.097-0.025c0.117-0.026,0.232-0.054,0.367-0.095l0.306-0.11c0.114-0.039,0.228-0.08,0.323-0.12
	c0.056-0.022,0.11-0.049,0.195-0.091c0.147-0.067,0.298-0.136,0.419-0.202c0.045-0.022,0.087-0.047,0.13-0.073
	c0.133-0.076,0.268-0.155,0.397-0.239l0.148-0.099c1.12-0.771,1.994-1.845,2.529-3.108c0.354-0.835,0.545-1.707,0.567-2.595
	l0.005-0.189c0-0.835-0.149-1.662-0.442-2.453c-1.024-2.81-3.72-4.698-6.708-4.698c-3.154,0-5.896,2.03-6.821,5.051
	c-0.173,0.564-0.274,1.103-0.31,1.657l-0.006,0.106c-0.007,0.111-0.014,0.223-0.014,0.338l0.004,0.093
	C33.838,24.341,35.55,26.891,38.163,27.995z M40.949,30.371c-3.413,0-6.615,1.395-8.954,3.839c-3.03-2.484-6.901-3.979-11.116-3.979
	c-9.684,0-17.563,7.879-17.563,17.564c0,0.156,0.009,0.311,0.019,0.463l0.047,1.199h34.984l0.055-1.169
	c0.01-0.163,0.02-0.326,0.02-0.493c0-1.213-0.124-2.398-0.359-3.543H53.3l0.058-1.088c0.008-0.123,0.016-0.245,0.016-0.369
	C53.373,35.944,47.8,30.371,40.949,30.371z M17.157,27.11c0.1,0.041,0.202,0.079,0.305,0.116l0.295,0.109
	c0.088,0.033,0.175,0.067,0.274,0.098c0.923,0.288,1.888,0.434,2.871,0.436h0.002c0.331,0,0.656-0.018,0.97-0.051
	c0.106-0.01,0.21-0.026,0.315-0.044l0.247-0.037c0.135-0.018,0.27-0.039,0.393-0.064c0.102-0.021,0.202-0.047,0.303-0.074
	l0.185-0.046c0.147-0.035,0.294-0.07,0.446-0.117c0.07-0.022,0.138-0.048,0.206-0.074l0.25-0.09
	c0.142-0.049,0.282-0.099,0.419-0.157c0.062-0.026,0.122-0.055,0.24-0.114c0.201-0.091,0.403-0.183,0.604-0.29
	c0.045-0.024,0.088-0.051,0.137-0.083c0.225-0.128,0.448-0.259,0.663-0.402l0.077-0.055c2.61-1.798,4.169-4.754,4.172-7.934
	c0-5.309-4.32-9.629-9.63-9.629c-5.068,0-9.284,3.963-9.6,9.021l-0.007,0.109c-0.011,0.165-0.023,0.332-0.023,0.5
	C11.271,22.115,13.579,25.597,17.157,27.11z"/>
</svg>
