<?xml version="1.0" encoding="utf-8"?>
<!-- Generator: Adobe Illustrator 17.0.0, SVG Export Plug-In . SVG Version: 6.00 Build 0)  -->
<!DOCTYPE svg PUBLIC "-//W3C//DTD SVG 1.1//EN" "http://www.w3.org/Graphics/SVG/1.1/DTD/svg11.dtd">
<svg version="1.1" id="Layer_1" xmlns="http://www.w3.org/2000/svg" xmlns:xlink="http://www.w3.org/1999/xlink" x="0px" y="0px"
	 width="56.689px" height="56.689px" viewBox="0 0 56.689 56.689" enable-background="new 0 0 56.689 56.689" xml:space="preserve">
<g>
	<path fill="none" stroke="#535353" stroke-width="2" stroke-miterlimit="10" d="M29.773,47.898v-4.256
		c0-0.378-0.378-0.757-0.757-0.757c-0.378,0-0.757,0.378-0.757,0.757v4.256c-9.741-0.378-17.685-8.228-18.064-18.064h4.256
		c0.378,0,0.757-0.378,0.757-0.757c0-0.378-0.378-0.757-0.757-0.757h-4.256c0.378-9.741,8.228-17.685,18.064-18.064v4.256
		c0,0.378,0.378,0.757,0.757,0.757c0.378,0,0.757-0.378,0.757-0.757v-4.256c9.741,0.378,17.685,8.228,18.064,18.064h-4.256
		c-0.378,0-0.757,0.378-0.757,0.757c0,0.378,0.378,0.757,0.757,0.757h4.256C47.364,39.67,39.514,47.52,29.773,47.898z"/>
	<path fill="none" stroke="#535353" stroke-width="2" stroke-miterlimit="10" d="M29.016,4.205
		c-13.713,0-24.873,11.16-24.873,24.873s11.16,24.873,24.873,24.873c13.713,0,24.873-11.16,24.873-24.873
		C53.889,15.364,42.729,4.205,29.016,4.205z"/>
	<path fill="none" stroke="#535353" stroke-width="2" stroke-miterlimit="10" d="M38.095,18.675L27.03,25.768l0,0
		c-0.284,0.189-0.567,0.378-0.851,0.567c-0.284,0.284-0.567,0.662-0.662,1.04l-6.715,11.16c-0.189,0.284-0.095,0.662,0.095,0.946
		c0.189,0.095,0.378,0.189,0.567,0.189c0.095,0,0.284,0,0.378-0.095l10.781-6.998c0.378-0.189,0.757-0.378,1.04-0.757
		c0.284-0.284,0.473-0.567,0.662-0.851c0,0,0,0,0.095-0.095l6.809-11.349c0.189-0.284,0.095-0.662-0.095-0.946
		C38.757,18.485,38.379,18.485,38.095,18.675z M30.624,30.875c-0.095,0.095-0.189,0.189-0.378,0.284c-0.095,0-0.095,0-0.189,0.095
		l-0.284,0.189c-0.284,0.095-0.567,0.189-0.851,0.189c-0.662,0-1.229-0.284-1.702-0.662c-0.662-0.662-0.851-1.702-0.473-2.554
		l0.189-0.284v-0.095c0.095-0.095,0.189-0.284,0.284-0.378c0.473-0.473,1.04-0.662,1.702-0.662c0.662,0,1.229,0.284,1.702,0.662
		C31.57,28.416,31.57,29.929,30.624,30.875z"/>
</g>
</svg>
